<svg width="32" height="32" viewBox="0 0 32 32" fill="none" xmlns="http://www.w3.org/2000/svg">
<g clip-path="url(#clip0_63_743)">
<path fill-rule="evenodd" clip-rule="evenodd" d="M17.7645 1.66667H17.8847C19.7024 1.66667 21.15 1.66667 22.3233 1.75616C23.5304 1.84928 24.5495 2.04276 25.4838 2.47932C25.9848 2.71514 26.4504 2.99811 26.8682 3.31979C27.6406 3.91839 28.1355 4.64397 28.5533 5.53765C28.9603 6.40593 29.3241 7.50518 29.7805 8.88379L29.947 9.38928C30.5668 11.2601 31.0616 12.7548 31.2451 13.9483C31.4332 15.1758 31.3237 16.2557 30.5205 17.1941C30.3762 17.3631 30.2176 17.5243 30.0457 17.6766C29.355 18.2873 28.4808 18.6416 27.4602 18.8533V20.7132C27.4602 20.9537 27.3384 21.1844 27.1216 21.3545C26.9047 21.5246 26.6106 21.6202 26.3039 21.6202C25.9973 21.6202 25.7032 21.5246 25.4863 21.3545C25.2695 21.1844 25.1477 20.9537 25.1477 20.7132V19.1254C23.8079 19.2016 22.1891 19.2016 20.2713 19.2016H18.9809V25.8527H22.4497C22.7564 25.8527 23.0505 25.9483 23.2673 26.1184C23.4841 26.2885 23.606 26.5191 23.606 26.7597C23.606 27.0002 23.4841 27.2309 23.2673 27.401C23.0505 27.5711 22.7564 27.6667 22.4497 27.6667H13.1995C12.8928 27.6667 12.5987 27.5711 12.3819 27.401C12.165 27.2309 12.0432 27.0002 12.0432 26.7597C12.0432 26.5191 12.165 26.2885 12.3819 26.1184C12.5987 25.9483 12.8928 25.8527 13.1995 25.8527H16.6683V19.2016H15.3794C12.9143 19.2016 10.9455 19.2016 9.42693 19.0407C7.86519 18.875 6.55937 18.5207 5.60351 17.6766C5.43154 17.5239 5.2729 17.3623 5.12867 17.1929C4.32544 16.2557 4.21598 15.1758 4.40407 13.9483C4.58907 12.7548 5.08242 11.2601 5.70218 9.38928L5.86868 8.885C6.32657 7.50518 6.69041 6.40593 7.09588 5.53765C7.51214 4.64277 8.00857 3.91718 8.7825 3.31979C9.19876 2.99811 9.66436 2.71514 10.167 2.47932C11.0997 2.04397 12.1187 1.84928 13.3274 1.75616C14.4991 1.66667 15.9483 1.66667 17.7645 1.66667ZM20.1818 17.3876C22.7565 17.3876 24.568 17.3852 25.9139 17.2425C27.2367 17.1034 27.8919 16.847 28.3159 16.4722C28.4192 16.3815 28.5147 16.2847 28.6011 16.1831C28.9557 15.7671 29.1098 15.2048 28.9495 14.166C28.7861 13.1079 28.3328 11.7317 27.6853 9.77746L27.5574 9.38565C27.0825 7.95021 26.7449 6.93681 26.3826 6.16165C26.028 5.40342 25.6826 4.95114 25.2448 4.61253C24.9592 4.3916 24.6409 4.19834 24.2967 4.0369C23.7678 3.789 23.1234 3.64025 22.0982 3.56165C21.0498 3.48183 19.7147 3.48063 17.8246 3.48063C15.9345 3.48063 14.5993 3.48063 13.5525 3.56165C12.5273 3.64025 11.8813 3.789 11.3525 4.0369C11.0088 4.1984 10.691 4.39166 10.4059 4.61253C9.96653 4.95114 9.62119 5.40342 9.2666 6.16165C8.9043 6.93681 8.56821 7.95142 8.09336 9.38565L7.96232 9.77746C7.3148 11.7317 6.86308 13.1079 6.7012 14.166C6.54087 15.206 6.69195 15.7671 7.04809 16.1831C7.13442 16.2847 7.23001 16.3815 7.3333 16.4734C7.75727 16.8483 8.41249 17.1022 9.73527 17.2437C11.0827 17.3852 12.8942 17.3876 15.4673 17.3876H20.1818Z" fill="#A9907E"/>
</g>
<defs>
<clipPath id="clip0_63_743">
<rect width="32" height="32" fill="white"/>
</clipPath>
</defs>
</svg>
