<svg width="27" height="26" viewBox="0 0 27 26" fill="none" xmlns="http://www.w3.org/2000/svg">
<path d="M6.4125 5.1825e-09H20.5875C21.5329 -5.31306e-05 22.4427 0.408494 23.1313 1.14231C23.8199 1.87612 24.2355 2.87991 24.2933 3.94894L24.3 4.20588V9.33553C25.0359 9.57219 25.6893 10.0604 26.1711 10.7335C26.6529 11.4066 26.9395 12.2318 26.9919 13.0964L27 13.3824V24.8529C26.9999 25.1436 26.9025 25.4233 26.7273 25.6357C26.5522 25.848 26.3124 25.9772 26.0565 25.997C25.8006 26.0168 25.5475 25.9258 25.3485 25.7424C25.1495 25.559 25.0194 25.2969 24.9845 25.0089L24.975 24.8529V21.4118H2.025V24.8529C2.02499 25.1301 1.93638 25.3979 1.77556 25.6068C1.61475 25.8157 1.3926 25.9516 1.1502 25.9893L1.0125 26C0.767829 26 0.531438 25.8996 0.347044 25.7174C0.162649 25.5352 0.0427252 25.2836 0.00944996 25.0089L0 24.8529V13.3824C0 11.4568 1.1421 9.83412 2.7 9.334V4.20588C2.69995 3.13486 3.06057 2.10415 3.70831 1.32402C4.35604 0.543877 5.24208 0.0730772 6.1857 0.00764724L6.4125 5.1825e-09ZM23.2875 11.4706H3.7125C3.29473 11.4704 2.89174 11.6457 2.58152 11.9627C2.27129 12.2797 2.07588 12.7158 2.0331 13.1866L2.025 13.3824V19.1176H24.975V13.3824C24.9749 12.9093 24.8199 12.4532 24.5402 12.102C24.2604 11.7509 23.8756 11.5297 23.4603 11.4813L23.2875 11.4706ZM20.5875 2.29412H6.4125C5.99473 2.2939 5.59174 2.46925 5.28152 2.78624C4.97129 3.10323 4.77588 3.53932 4.7331 4.01012L4.725 4.20588V9.17647H6.75C6.75 8.77085 6.89223 8.38183 7.14541 8.09501C7.39858 7.80819 7.74196 7.64706 8.1 7.64706H10.8C11.1307 7.64711 11.4498 7.78464 11.6969 8.03356C11.944 8.28249 12.1019 8.6255 12.1406 8.99753L12.15 9.17647H14.85C14.85 8.77085 14.9922 8.38183 15.2454 8.09501C15.4986 7.80819 15.842 7.64706 16.2 7.64706H18.9C19.2307 7.64711 19.5498 7.78464 19.7969 8.03356C20.044 8.28249 20.2019 8.6255 20.2406 8.99753L20.25 9.17647H22.275V4.20588C22.2752 3.73259 22.1204 3.27605 21.8406 2.92459C21.5608 2.57314 21.1759 2.35176 20.7603 2.30329L20.5875 2.29412Z" fill="#A9907E"/>
</svg>
