<svg width="20" height="20" viewBox="0 0 20 20" fill="none" xmlns="http://www.w3.org/2000/svg">
<g clip-path="url(#clip0_0_13)">
<path d="M18.3333 6.27917V14.1667C18.3334 14.8044 18.0897 15.4179 17.6523 15.8819C17.2148 16.3458 16.6166 16.6251 15.98 16.6625L15.8333 16.6667H4.16666C3.52898 16.6667 2.91539 16.4231 2.45144 15.9856C1.98748 15.5481 1.70823 14.9499 1.67082 14.3133L1.66666 14.1667V6.27917L9.53749 11.5267L9.63416 11.5817C9.74808 11.6373 9.8732 11.6663 9.99999 11.6663C10.1268 11.6663 10.2519 11.6373 10.3658 11.5817L10.4625 11.5267L18.3333 6.27917Z" fill="white"/>
<path d="M15.8333 3.33331C16.7333 3.33331 17.5225 3.80831 17.9625 4.52248L10 9.83081L2.03751 4.52248C2.24645 4.18312 2.53352 3.89865 2.87476 3.6928C3.21601 3.48695 3.60153 3.36569 3.99917 3.33915L4.16667 3.33331H15.8333Z" fill="white"/>
</g>
<defs>
<clipPath id="clip0_0_13">
<rect width="20" height="20" fill="white"/>
</clipPath>
</defs>
</svg>
