<svg width="27" height="27" viewBox="0 0 27 27" fill="none" xmlns="http://www.w3.org/2000/svg">
<path d="M1.46572 7.42969C2.61185 5.19571 4.37011 3.31775 6.54396 2.0057C8.71782 0.693653 11.2216 -0.000786884 13.7755 6.69118e-07C17.488 6.69118e-07 20.6068 1.33627 22.9913 3.51258L19.0419 7.3798C17.6134 6.04353 15.7978 5.36259 13.7755 5.36259C10.187 5.36259 7.14949 7.73577 6.06811 10.922C5.7926 11.7311 5.63556 12.5941 5.63556 13.484C5.63556 14.3739 5.7926 15.2369 6.06811 16.046C7.15087 19.2336 10.187 21.6054 13.7755 21.6054C15.6283 21.6054 17.2056 21.1267 18.4399 20.3177C19.1554 19.8565 19.768 19.2582 20.2406 18.5587C20.7132 17.8592 21.036 17.0733 21.1895 16.2482H13.7755V11.0326H26.7493C26.9118 11.9145 27 12.8341 27 13.7901C27 17.8973 25.4985 21.3546 22.8921 23.7008C20.6137 25.7612 17.4949 26.968 13.7755 26.968C11.9663 26.9687 10.1746 26.6204 8.50299 25.943C6.83135 25.2657 5.31246 24.2725 4.03314 23.0202C2.75382 21.768 1.73915 20.2812 1.04712 18.6449C0.355097 17.0087 -0.000723023 15.2549 1.10302e-06 13.484C1.10302e-06 11.3077 0.531736 9.25003 1.46572 7.42969Z" fill="white"/>
</svg>
