<svg width="27" height="27" viewBox="0 0 27 27" fill="none" xmlns="http://www.w3.org/2000/svg">
<path d="M22.4962 25.886C20.7516 27.3092 18.8468 27.0844 17.0132 26.4103C15.0729 25.7212 13.2927 25.6913 11.2455 26.4103C8.68203 27.3391 7.32911 27.0695 5.79816 25.886C-2.88908 18.3509 -1.60736 6.87597 8.2548 6.45653C10.658 6.56139 12.3314 7.56507 13.7377 7.65495C15.8383 7.29542 17.8499 6.26178 20.0929 6.3966C22.781 6.57637 24.8104 7.47519 26.1455 9.09306C20.5914 11.8944 21.9087 18.0513 27 19.774C25.9853 22.0211 24.668 24.2532 22.4784 25.901L22.4962 25.886ZM13.5597 6.36664C13.2927 3.02603 16.5148 0.269646 20.2175 0C20.7338 3.86493 16.0519 6.74115 13.5597 6.36664Z" fill="white"/>
</svg>
