<svg width="20" height="20" viewBox="0 0 20 20" fill="none" xmlns="http://www.w3.org/2000/svg">
<g clip-path="url(#clip0_0_19)">
<path d="M18.521 1.47803C18.3335 1.29056 18.0792 1.18524 17.814 1.18524C17.5488 1.18524 17.2945 1.29056 17.107 1.47803L1.48 17.107C1.38449 17.1993 1.30831 17.3096 1.2559 17.4316C1.20349 17.5536 1.1759 17.6848 1.17475 17.8176C1.1736 17.9504 1.1989 18.0821 1.24918 18.205C1.29946 18.3279 1.37371 18.4395 1.4676 18.5334C1.5615 18.6273 1.67315 18.7016 1.79605 18.7519C1.91894 18.8021 2.05062 18.8274 2.1834 18.8263C2.31618 18.8251 2.4474 18.7975 2.5694 18.7451C2.69141 18.6927 2.80175 18.6165 2.894 18.521L18.52 2.89203C18.7075 2.7045 18.8128 2.45019 18.8128 2.18503C18.8128 1.91986 18.7085 1.66556 18.521 1.47803ZM3.108 13.498L5.668 10.938C5.59501 10.6306 5.5571 10.316 5.555 10C5.555 7.62103 7.545 5.69103 10 5.69103C10.286 5.69103 10.564 5.72303 10.835 5.77303L12.038 4.57103C11.3644 4.45943 10.6828 4.40258 10 4.40103C3.44 4.40003 0 9.23103 0 10C0 10.423 1.057 12.091 3.108 13.498ZM16.895 6.50503L14.333 9.06503C14.402 9.36703 14.444 9.67803 14.444 10C14.444 12.379 12.455 14.307 10 14.307C9.716 14.307 9.44 14.275 9.171 14.226L7.967 15.429C8.609 15.533 9.283 15.599 10 15.599C16.56 15.599 20 10.766 20 10C20 9.57603 18.944 7.91003 16.895 6.50503Z" fill="white"/>
</g>
<defs>
<clipPath id="clip0_0_19">
<rect width="20" height="20" fill="white"/>
</clipPath>
</defs>
</svg>
