<svg width="32" height="30" viewBox="0 0 32 30" fill="none" xmlns="http://www.w3.org/2000/svg">
<path d="M2.66667 20V23.75M5.33334 11.25V8.75C5.33334 8.08696 5.61429 7.45107 6.11439 6.98223C6.61448 6.51339 7.29276 6.25 8.00001 6.25H24C24.7072 6.25 25.3855 6.51339 25.8856 6.98223C26.3857 7.45107 26.6667 8.08696 26.6667 8.75V11.25" stroke="#A9907E" stroke-width="2" stroke-linecap="round" stroke-linejoin="round"/>
<path d="M29.3333 20V23.75M26.6667 11.25C25.9594 11.25 25.2812 11.5134 24.7811 11.9822C24.281 12.4511 24 13.087 24 13.75V16.25H8.00001V13.75C8.00001 13.087 7.71905 12.4511 7.21896 11.9822C6.71886 11.5134 6.04058 11.25 5.33334 11.25C4.62609 11.25 3.94782 11.5134 3.44772 11.9822C2.94762 12.4511 2.66667 13.087 2.66667 13.75V21.25H29.3333V13.75C29.3333 13.087 29.0524 12.4511 28.5523 11.9822C28.0522 11.5134 27.3739 11.25 26.6667 11.25Z" stroke="#A9907E" stroke-width="2" stroke-linecap="round" stroke-linejoin="round"/>
</svg>
