<svg width="30" height="32" viewBox="0 0 30 32" fill="none" xmlns="http://www.w3.org/2000/svg">
<path d="M20.0937 19.0719H19.0175L18.636 18.7041C20.0172 17.1021 20.7763 15.0569 20.7748 12.9417C20.7748 11.1904 20.2555 9.47837 19.2825 8.0222C18.3095 6.56603 16.9266 5.43108 15.3086 4.76088C13.6906 4.09068 11.9101 3.91533 10.1925 4.25699C8.47481 4.59866 6.89703 5.442 5.65866 6.68037C4.42029 7.91874 3.57695 9.49652 3.23528 11.2142C2.89361 12.9319 3.06897 14.7123 3.73917 16.3303C4.40937 17.9483 5.54432 19.3312 7.00049 20.3042C8.45666 21.2772 10.1686 21.7965 11.92 21.7965C14.1132 21.7965 16.1294 20.9928 17.6824 19.6577L18.0502 20.0392V21.1154L24.8616 27.9132L26.8914 25.8834L20.0937 19.0719ZM11.92 19.0719C8.52789 19.0719 5.7897 16.3338 5.7897 12.9417C5.7897 9.5496 8.52789 6.81141 11.92 6.81141C15.312 6.81141 18.0502 9.5496 18.0502 12.9417C18.0502 16.3338 15.312 19.0719 11.92 19.0719Z" fill="#404F4C"/>
</svg>
