<svg width="26" height="23" viewBox="0 0 26 23" fill="none" xmlns="http://www.w3.org/2000/svg">
<path d="M22.9412 12.7919C23.7858 12.7919 24.4706 12.1072 24.4706 11.2625C24.4706 10.4178 23.7858 9.73307 22.9412 9.73307V12.7919ZM0.447955 10.181C-0.149318 10.7783 -0.149318 11.7467 0.447955 12.3439L10.1811 22.0771C10.7783 22.6743 11.7467 22.6743 12.344 22.0771C12.9413 21.4798 12.9413 20.5114 12.344 19.9141L3.69233 11.2625L12.344 2.61083C12.9413 2.01355 12.9413 1.04518 12.344 0.44791C11.7467 -0.149362 10.7783 -0.149362 10.1811 0.44791L0.447955 10.181ZM22.9412 9.73307L1.52941 9.73307V12.7919L22.9412 12.7919V9.73307Z" fill="white"/>
</svg>
