<svg width="27" height="23" viewBox="0 0 27 23" fill="none" xmlns="http://www.w3.org/2000/svg">
<path d="M3.7125 0C2.72788 0 1.7836 0.391137 1.08737 1.08737C0.391138 1.7836 0 2.72788 0 3.7125V15.1875C0 16.1721 0.391138 17.1164 1.08737 17.8126C1.7836 18.5089 2.72788 18.9 3.7125 18.9H23.2875C24.2721 18.9 25.2164 18.5089 25.9126 17.8126C26.6089 17.1164 27 16.1721 27 15.1875V3.7125C27 2.72788 26.6089 1.7836 25.9126 1.08737C25.2164 0.391137 24.2721 0 23.2875 0H3.7125ZM2.025 3.7125C2.025 2.781 2.781 2.025 3.7125 2.025H23.2875C24.219 2.025 24.975 2.781 24.975 3.7125V15.1875C24.975 16.119 24.219 16.875 23.2875 16.875H3.7125C2.781 16.875 2.025 16.119 2.025 15.1875V3.7125ZM5.0625 20.925C4.79397 20.925 4.53644 21.0317 4.34656 21.2216C4.15668 21.4114 4.05 21.669 4.05 21.9375C4.05 22.206 4.15668 22.4636 4.34656 22.6535C4.53644 22.8433 4.79397 22.95 5.0625 22.95H21.9375C22.206 22.95 22.4636 22.8433 22.6535 22.6535C22.8433 22.4636 22.95 22.206 22.95 21.9375C22.95 21.669 22.8433 21.4114 22.6535 21.2216C22.4636 21.0317 22.206 20.925 21.9375 20.925H5.0625Z" fill="#A9907E"/>
</svg>
