<svg width="251" height="31" viewBox="0 0 251 31" fill="none" xmlns="http://www.w3.org/2000/svg">
<path fill-rule="evenodd" clip-rule="evenodd" d="M13.9395 3.43948C14.2208 3.15828 14.6023 3.00031 15 3.00031C15.3977 3.00031 15.7792 3.15828 16.0605 3.43948L26.5605 13.9395C26.7702 14.1493 26.913 14.4165 26.9709 14.7074C27.0287 14.9984 26.999 15.2999 26.8855 15.574C26.772 15.848 26.5798 16.0823 26.3332 16.2471C26.0866 16.4119 25.7966 16.4999 25.5 16.5H24V25.5C24 25.8978 23.842 26.2793 23.5607 26.5606C23.2794 26.842 22.8978 27 22.5 27H19.5C19.1022 27 18.7206 26.842 18.4393 26.5606C18.158 26.2793 18 25.8978 18 25.5V21C18 20.6022 17.842 20.2206 17.5607 19.9393C17.2794 19.658 16.8978 19.5 16.5 19.5H13.5C13.1022 19.5 12.7206 19.658 12.4393 19.9393C12.158 20.2206 12 20.6022 12 21V25.5C12 25.8978 11.842 26.2793 11.5607 26.5606C11.2794 26.842 10.8978 27 10.5 27H7.5C7.10218 27 6.72065 26.842 6.43934 26.5606C6.15804 26.2793 6 25.8978 6 25.5V16.5H4.5C4.20338 16.4999 3.91343 16.4119 3.66681 16.2471C3.4202 16.0823 3.22799 15.848 3.11448 15.574C3.00098 15.2999 2.97127 14.9984 3.02913 14.7074C3.08698 14.4165 3.22979 14.1493 3.4395 13.9395L13.9395 3.43948Z" fill="#675D50"/>
<path d="M239.25 5.5C238.09 5.5 236.977 5.96094 236.156 6.78141C235.336 7.60188 234.875 8.71468 234.875 9.875C234.875 11.0353 235.336 12.1481 236.156 12.9686C236.977 13.7891 238.09 14.25 239.25 14.25C240.41 14.25 241.523 13.7891 242.344 12.9686C243.164 12.1481 243.625 11.0353 243.625 9.875C243.625 8.71468 243.164 7.60188 242.344 6.78141C241.523 5.96094 240.41 5.5 239.25 5.5ZM232.375 9.875C232.375 8.05164 233.099 6.30295 234.389 5.01364C235.678 3.72433 237.427 3 239.25 3C241.073 3 242.822 3.72433 244.111 5.01364C245.401 6.30295 246.125 8.05164 246.125 9.875C246.125 11.6984 245.401 13.447 244.111 14.7364C242.822 16.0257 241.073 16.75 239.25 16.75C237.427 16.75 235.678 16.0257 234.389 14.7364C233.099 13.447 232.375 11.6984 232.375 9.875ZM228 24.25C228 22.5924 228.658 21.0027 229.831 19.8306C231.003 18.6585 232.592 18 234.25 18H244.25C245.908 18 247.497 18.6585 248.669 19.8306C249.842 21.0027 250.5 22.5924 250.5 24.25V28H228V24.25ZM234.25 20.5C233.255 20.5 232.302 20.8951 231.598 21.5984C230.895 22.3016 230.5 23.2554 230.5 24.25V25.5H248V24.25C248 23.2554 247.605 22.3016 246.902 21.5984C246.198 20.8951 245.245 20.5 244.25 20.5H234.25Z" fill="#675D50"/>
</svg>
